<?xml version="1.0" encoding="UTF-8"?>
<svg version="1.1" xmlns="http://www.w3.org/2000/svg" width="210" height="210">
<path d="M0 0 C1.1034375 0.350625 2.206875 0.70125 3.34375 1.0625 C30.5421571 10.56873937 51.67817839 30.59010284 64.25 56.3125 C74.61412561 79.81221656 77.25395683 108.45533889 69 133 C68.649375 134.1034375 68.29875 135.206875 67.9375 136.34375 C58.43126063 163.5421571 38.40989716 184.67817839 12.6875 197.25 C-10.81221656 207.61412561 -39.45533889 210.25395683 -64 202 C-65.1034375 201.649375 -66.206875 201.29875 -67.34375 200.9375 C-94.5421571 191.43126063 -115.67817839 171.40989716 -128.25 145.6875 C-138.61412561 122.18778344 -141.25395683 93.54466111 -133 69 C-132.649375 67.8965625 -132.29875 66.793125 -131.9375 65.65625 C-122.43126063 38.4578429 -102.40989716 17.32182161 -76.6875 4.75 C-53.18778344 -5.61412561 -24.54466111 -8.25395683 0 0 Z " fill="#04C75A" transform="translate(137,4)"/>
<path d="M0 0 C25 0 25 0 30.51953125 4.43359375 C32.27929688 7.31811523 32.27929688 7.31811523 33.8125 10.4375 C35.04683818 12.54245237 36.28252973 14.64661168 37.51953125 16.75 C38.38312256 18.3278125 38.38312256 18.3278125 39.26416016 19.9375 C41.85547852 24.50929993 44.90679774 28.69754333 48 32.9375 C50.475 36.4334375 50.475 36.4334375 53 40 C53.33 26.8 53.66 13.6 54 0 C62.58 0 71.16 0 80 0 C80 26.4 80 52.8 80 80 C55 80 55 80 49.48046875 75.56640625 C47.72070312 72.68188477 47.72070312 72.68188477 46.1875 69.5625 C44.95316182 67.45754763 43.71747027 65.35338832 42.48046875 63.25 C41.90474121 62.198125 41.32901367 61.14625 40.73583984 60.0625 C38.14452148 55.49070007 35.09320226 51.30245667 32 47.0625 C30.35 44.731875 28.7 42.40125 27 40 C26.67 53.2 26.34 66.4 26 80 C17.42 80 8.84 80 0 80 C0 53.6 0 27.2 0 0 Z " fill="#FCFEFD" transform="translate(65,65)"/>
</svg>
